<svg width="305" height="681" fill="none" xmlns="http://www.w3.org/2000/svg"><path d="M174.3 97.4l-10 9 1 4v3l1 10 1.3 13 3.7 10 9.8 3.2.2 26.8-3 2m-122-136l1 7 8.5 31" stroke="#3B2B50" stroke-miterlimit="10"/><path d="M172.3 93.4l6 4h2l2-4 3 1s-2 5-1 5 3 2 3 2l3-2 3 3v4l6 3 10 10-3 3-15-4-16 1-3-2-2 1 1 2-5 3" stroke="#3B2B50" stroke-miterlimit="10"/><path d="M165.3 110.4l6-3 10-2 12 1m-26 7l8-3h12l12 5m-33.5 2.5l4.5-2.5 7-1h5m-126-71.7l4-11.3 8-5 11-2 4 2v4l-2 2 1 1-1 3-2 1 1 2-.7 3.3h-1.7v4.5l-2.2.6-.4 1.6v20l5 11 15 19 10 24 17 12 11 15 3-2 8 4v3l15 7 11 9 10.8-.7" stroke="#3B2B50" stroke-miterlimit="10"/><path d="M66.3 31.6l6.6-2.6 6.4.5 2 2.9m-19 5.2l7.1-2.9h7.2l2.7 2.7m-18 5.3l7-3.1 6.7.3 2.9 2.8m-15.2 6.4l9.8-4.2 2 1 1.2 1.9M24.6 178.4l6.8 3.9h6.7l6.5-5.2 14.1-22.8 7-2.2 4.4.8 5.4-4.1 6.6-2.4 20.5 10.7 5.9 1.2 7.2-2 4.5-7-3-1.7-3.1 4.8-5 2.9-27.2-13.7-7.4-.7-11.5 3.6-8.1 6.2-13.8 23.8-3 3h-4.4l-7.2-2.7-1.9 3.6zM1 283.8l11.3-.9 18.8.4 12.3 1.7 13 2.9v2.3l-7.9 6-11.4 2.7H24.2l-11.9-3.6L1 286.2v-2.4zm81-16.7v2.6l5.9 5.4 11.5 6.1 13.3 3.2 15.4-1.5 9.9-5 4-5.3-1.3-3.1-14.3-3-13.2-1.4H91.5l-9.5 2z" stroke="#3B2B50" stroke-miterlimit="10"/><path d="M3.6 282.9L36 182.3 52.7 287M36 182.3V284m27-139.5l-2.4-8 6.5-28.6-1.3-38.2 1.3-2.6V47.2m14.8 94.4l-.8-18.2-8.7-19V68.8L71 63.9V45.3m4.8 95.6v-14.1L70 115.4" stroke="#3B2B50" stroke-miterlimit="10"/><path d="M71 118.3l-3.9 14.5 1.4 10m12.7-18.4l21.3 27.6m30.8-1.6l-2.6 9-6.9 10.7 9.5 6.6 8.7-11.6 2.3-9.7m25.2-33.9l-1.9 3.1.9 1.9 3.3-.3 1.9.7m-4.1 8.1l1.8-1 .6.3.7-.5 3.8 1m-5.2 2.5l3.5-.2M86 266.2l27.8-109.4L138.5 269m-24.7-112.2l-5.4 108.3m.1-106.8l15.3 11.8" stroke="#3B2B50" stroke-miterlimit="10"/><path d="M139.3 168.7l4.4 12.8.6 8.3-5 10.6v9.8l4 11.9 1 14.3-1.6 6.9 2.8 4.4-1.2 4.6 4.1 1.8v7.4l-4.5 10.5-2.4 28.8 2.4 4.6-7.6 35.3-5.3 3.2 1.8 8.6-3.5 2v6l-10.5 14.9 1.8 9.3.2 17.8.8 13-5.9 11.7 6.3 7.6-9.3 17.5 9.3 11.6 8.6 20.1 4.7 4 22.3 50.4-7.8 36.5-10.7 9.7.2 3.6-4.2 1.5 4.5 12 59.6-5.9m10.1-476.4l1.9-.6 3.7 3.6-.3 6.4-10.5 8.1-1.3-3.2" stroke="#3B2B50" stroke-miterlimit="10"/><path d="M205.6 130.3l3.3-3.8-1.4-1.6m-2.5 11.3v4.9l3.3 3.4-2.7 6.2 2.2 5.8-2.2 5.2v5.5l3.8 3.7 12.3 5.4 1.5-2.2 6.2.9-1.7-4.3-4.6-1.8-.1-5.3-2-3.8 3.9-3.7-.4-4-2.9-.2-1.7 1.6-2-2.1 3-6.5-2.2-4.2-4.6-3.8-1.4-6.6m-78.6 45.4l10.1 13" stroke="#3B2B50" stroke-miterlimit="10"/><path d="M226.2 174.5l2.2 4.6 9.4 8.8 8.4 10.4 1.6 8.6 7.1 8.8-1 3.1h-7.3l-9.3 4.7-1.6 4.8-2.8-1.4-5.3-12.6-2.9.6-4.4 9.6.8 4.5 5 5.7-5.3 6.2-.5 8.3 1.1 2.8-7.5 1.3-.9 4.3 2.7 1.2 4.8 6.9 8.1 3.5 1.7 4.3-7 5.1 1.8 7.3 2.9 2.7.6 5.5 7.9 11.5-2.6 1.7-7.5-3.8 3.8 14.1.7 29.9-4.4 29.2 3.2 12.5 22.6 17.1 12.3 46-22.6 22.2-4.2 17.2 19.4 21.8 1.2 12-6.6 9.8 6 25.8-23 38.4 4 11.4 11.2-4 8.4 28.8-18.6-8-8-18.2-15.5-12.6" stroke="#3B2B50" stroke-miterlimit="10"/><path d="M228.5 216.4l5.4-5.6 8.9-3.3 5-.6m6.1 11.9l17.8 33.3 10.4 29.6 4.3 25.5 3.1 23.9 2.9 8.6 6.9 15.3-.9 9-1.7-.8-5.8-12.8-10.4 3.7-5.3 8.7-2.9 1-2.5-2.1.7-3.9-2.6-.6-.5-3.5 2.1-3.3-3.3.1-.6-3.6 6.3-14.9 3.8-4.7-5-20-10.2-24.2-5.6-21.5-6.2-8.5-13-24.8" stroke="#3B2B50" stroke-miterlimit="10"/><path d="M280.5 354.1l1-2-2.4-1.6-5.5 4.4 5.4-8.1-4.6-4.1-8.8 4.2m3.9 3.5l6.9-6m-5.9 13.4l3.1-2.9m2.4 6.6l10.4 29.6 2 1.6 15.4-5.4 1-2.1-8.1-22" stroke="#3B2B50" stroke-miterlimit="10"/><path d="M290.8 391.8l-1.4-3.7.7-1.3 9-3 1.5.7 1.3 3.5m-13.7-33.4l-6.9 2.7M279 370l-1.5 8.8 2.3.8 1.6-2.6M179 623v2.5l3.5 1.4 1.3-1 .7 1 3.2 1 .7-1 1.1 1.4h3l.9-.8 1.3.8 4.3-1.1 1.7.5 10.1-6.6 6.2-27v-11.8l3.4-27 6.5-37-11-8.4-1.9-25.8-1-19.3-8.6-10.9 1.2 34.8 1.5 65-1.3 22.3-10.5 31.9-6.6 7.3-1.4 2.6-8.3 5.5m47.9-105l.5-3.9 7.5 2.9 2.8 15.2 1.1 7.8-8.6 22.8" stroke="#3B2B50" stroke-miterlimit="10"/><path d="M238.8 540.3l7.1-24.6-7.1-12.4-18.8-36.4-4.8-29-7.4-4.8 1.2-23.9 8.4-30.1M131 343.9l9.6 6.8 14 24.2 14.4 37.2m-25.1-106.7l21.3 33.5 8.6 19.5-4 18.5 7.2 35.2M135.3 488l-4.3-19.1-4.4-40.2v-41.8l11.8 9.6 9.4 11.6 7 17.2v27.4l8.9 15.3 1.1 20-3 11.3 5.2 29.6 6 14-13.6 35.6-17.6 10.2-2.5-.5m6.3-134.5l-1.7 12.4m-5.8 4.4h4.9m118.4-212.6l3.2-1.9" stroke="#3B2B50" stroke-miterlimit="10"/><path d="M154.8 452.7l-1.3 10.5 9.7 30.9m-36.6-107.2l-2.4-8.4 3.1-6.8-1.6-2.2 1.6-6.1m21.1-109.3l10.2-2.9 29.5-1 22.3 3.9 3.5-.8m-65.5 8.2l15.6-3.4h27.7l13.1 2.8 1.6 13.8-13.6 29.2" stroke="#3B2B50" stroke-miterlimit="10"/><path d="M153.6 260.3l-3.8 12.6-.5 19.7m14.7-34.5l.5 5.5 14.1 10.1 8 1.5 5.2-4.1-1.2 8.2-2.9 19.9" stroke="#3B2B50" stroke-miterlimit="10"/><path d="M171.5 258.1l3.1 7 10.5 2.4 7.8-9.2m-10.7 54.8l-5.2 25.4.9 31.8 5.7 49-1.2 16.8-17.6 51.9m-.5-381.6l-2-4v-4.5l3-3.5h2.9l2.9-4.9 8.2-5 3 .8 3.2-2 6.3 1.1 8.1 1.1 9.4 4.8v3.1l5.6 4.5 3.8 7.5.7 13.4-2.8 5.4-.4 3.4-1.6 1.2" stroke="#3B2B50" stroke-miterlimit="10"/><path d="M178.1 92.7l4.6-3.8 4.4 1.9 4.1-1.9 3.5 4.2 4-1.8.6 3.5-5.6 3.1m14.6-2.5l-4.9-2-.6 4 4.5 5.4h3.4v5.1l3.8 1.2.4 7.4M196.7 103l3 .6 1.4 4.3 3.2-.4 5 6.9m-25 58.9l.9 4.4 1.7.7 4.8-3.5M169 190l1.3 2.2h5.4l1.6-3.5-4.5-1.2-3.8 2.5zm9.6 4l10 1.2 6.9 9.2 3.2 9.2 13.4 21.6" stroke="#3B2B50" stroke-miterlimit="10"/><path d="M142.5 162.8l8.8 13.5 7.2 7 12.5 5.4m12.1 1.1l11.6-4.3 14.4-3.3 11.2-6.5m-72.1 9.6l7.8 3.4 13 1.3m2.5 2.2l-.5 10.2 1.8 10.5 10.3 8.2 31.7 24.8" stroke="#3B2B50" stroke-miterlimit="10"/><path d="M197.3 243.8l-14.2-9.6-9.3-9.6-4.8-8.2v-8.9m-25.7 14.6l6.9-4.2 9.8-11.6 10.3-14.1m35.4 23.3l4-8.6 11.9-3.5 4.3 4.1 1.7 6.8m-1.2 89.2l-11.6-16.2-2.7 1.8-5.7-14.4m23.3 114.5l-6.7-3.1-6.2-9.8-8.6 15.6-19.2 39.2-5.4 27.4-3.4 36.6 9.4 15 2 21-15.8 15.2-1.6 12 4.8 11-9.2 19.4-29.3 4.6-5.4-3.6m23.1-330.4l-.6 13.2.6 10.3 4.4 7.5m-.5-31.8l-.8 8.4 4.2 7.2m24.3 35.2l-4 23.6-2.2 42.2 5.4 56" stroke="#3B2B50" stroke-miterlimit="10"/><path d="M186.9 409.2l4.6-21.6 21.5-37.7 4.7-14.7 1.8-16 .8 17.2 3 9.3-4.8 23.3m1-49.8l-3.1-3.6 3.9-3.6 3 3.6-3.8 3.6z" stroke="#3B2B50" stroke-miterlimit="10"/><path d="M216.8 376.3l-2.1-4.3 3.9-3.7 1.5 5-3.3 3zm9.3 11.2l-.7 19.2-2.1 24.4-1.5 28.8m-79.2-148.5v12.7l9.7 19.8 12.9 12.5m46.9-67.3l-3.6 16.3-14.8 28.5m13.6-199.5l2.4 6.7 3.3-.8-1.1 9.2 3 5.6-4.2 4.2 4.2 5.8M67.1 27.1V16.4l-4.4-4.6 9-10.8 8.5 11.1-3.7 3.8v9" stroke="#3B2B50" stroke-miterlimit="10"/><path d="M62.7 11.8l5.3 1 3-3.9 3.5 3.6 5.7-.4m59.4 589.6l-30.8 6.2 3.9 27.8 3 1.7-18.5 14.7-12.2 2.6-6 8.2v6.4l110.6 11 92.4-11.2 6.2-16-29.8-17.4" stroke="#3B2B50" stroke-miterlimit="10"/><path d="M198.7 597.5L125 608.1h-1.7l-12.6 2.6 3.4 22.6 4 2.4 11.8-2.6h2.8l24.3-7.4 3.7-8.5 35.9-13.3m-71.6 4.2l4.1 25.2m-3.5-21.2l68.7-12.2m-68.1 15.8l67.1-13.2M127 619.7l46-9.8M127.7 625l30.6-7.5m-29.9 11.8l26.3-7m-29.1-10.2l-11.7 1.8m12.3 1.8l-10.9 2.5m11.7 1.5l-10.8 2.1m11.5 3.2l-10 2m10.7 2.3l-10.6 2.7" stroke="#3B2B50" stroke-miterlimit="10"/><path d="M157 625.7l12 5.9 15.7 3.3m-87.5 17.2l13.5-4.9 12 6.7h15.6l9.6-1.9 9.1 4.8h12.8l13.8 9.6 15.1-11.5 7.6.3 6.7-5.9m-5.2-216.2l-3.4 20.8-8.1 28.5-5.5 17.1-1.2 10.6m18.2-117.4l-5 24.6-8.2 32.6-6 33.2m-11-32.9l-.6 21.4.6 17.5-3.4 12.8.8 23.8 3.3 10.7-3 7.2M163.7 468l6.5-30.1-1.2-18.8m-25.9-25l7.3 8.3 11 23.5-6.1-28-6.3-17.5-18-10.1-3.7 1.4m67.4-29.8l2.6 17.8 11.8-19-4.6-10.8 6.5-9.2m3.7 51.3l-5.8-4.8m8.1 2.7l-6-8.8m4.4 12.8l-10.8 4.2m14.2-3.6l6.4 9M169 191.6l-14 7.4m-10.7 37.4l2.1 7.4 5.9-2.2 9.7 6.8 17.4-2.5 10.2-1.2 16.1 6.8M166 204l-3.4 14.1 1.4 14.3 4.6 7.1 4.2-3.5-6.2-7-1.1-7.9m-16.2 5.3l6.7-6.4 3.1-5.4m54.7 364.1l-2.8 7.7m-27.2 39.5l1.2-2.5 4.1-3m-.7 6.5l.4-1.8 3.1-3.4m1.5 5.8l.3-1.8 3.2-2.9m2.1 4.4l.6-2 2.8-2.4m36-227l7.5 36.3 5.4 8.2-5.4 18.1-11.4 13.6-6.6-4.5m-20.1-189.3l-2.7 10.9-19.6 49.3M126.9 365l22.9 9.7 9.4 12.2M122 434.8l5.9 5.9m154.8-66.6l2.4-4.1 2.9-2.1 2.7-.7 5.9 1.9-1.8 3.8-3.1 2.6-4.1.5-4.9-1.9z" stroke="#3B2B50" stroke-miterlimit="10"/><path d="M288.5 369.6l-1.1 1.3.2 1.7 1.2 1.4 1.8-.2 1.5-1 .2-2.1-1.5-1.5-2.3.4zM141.8 588.7l8-.6 10.7-7.5 13.7-22.3m26.2-90.3l-3.5 32.5 3.5 67.2" stroke="#3B2B50" stroke-miterlimit="10"/></svg>