<svg width="75" height="47" fill="none" xmlns="http://www.w3.org/2000/svg"><g clip-path="url(#clip0_1628:368)"><path d="M2.58 24.02a.469.469 0 010-.59C4.604 20.87 19.5 2.98 37.36 2.498c19.238-.512 34.982 21.367 35.121 21.227 1.113-1.133-16.3 21.056-35.074 20.792C19.978 44.27 4.667 26.533 2.58 24.02z" fill="#18DEE8"/><path d="M37.732 47h-.356c-7.864-.109-16.161-3.445-24.629-9.9C6.335 32.213 1.885 27.061.68 25.602a2.956 2.956 0 01-.031-3.739c1.174-1.474 5.516-6.672 11.866-11.653C20.905 3.662 29.25.233 37.3.016 49.227-.31 62.222 7.339 73.872 21.553a.67.67 0 01.093.108 2.502 2.502 0 01.942 2.685c-.092.357-.278 1.008-3.569 4.5a77.741 77.741 0 01-8.065 7.432C57.123 41.181 47.729 47 37.732 47zM5.562 23.694c4.033 4.53 17.337 18.139 31.876 18.34 8.452.125 16.718-4.918 22.157-9.185 4.481-3.507 7.942-7.122 9.673-9.093C58.823 11.358 47.543 4.702 37.423 4.981c-14.895.388-27.92 14.135-31.86 18.713z" fill="#3B2B50"/><path d="M25.757 23.492c0-6.92 5.593-12.537 12.485-12.537 6.89 0 12.484 5.617 12.484 12.537 0 6.92-5.593 12.538-12.484 12.538-6.892.015-12.485-5.602-12.485-12.538z" fill="#D4E0F4"/><path d="M38.242 38.528c-8.251 0-14.957-6.734-14.957-15.02s6.706-15.02 14.957-15.02c8.25 0 14.956 6.734 14.956 15.02s-6.705 15.02-14.956 15.02zm0-25.09c-5.516 0-10.013 4.515-10.013 10.054 0 5.54 4.497 10.055 10.013 10.055s10.012-4.515 10.012-10.055-4.48-10.055-10.012-10.055z" fill="#3B2B50"/><path d="M44.515 18.387H31.907a.278.278 0 01-.279-.28c0-.154.124-.278.279-.278h12.608c.154 0 .278.124.278.279 0 .155-.124.28-.278.28z" fill="#178785"/><path d="M38.21 28.877a.278.278 0 01-.277-.28V16.742a.278.278 0 11.556 0v11.855c0 .14-.124.28-.278.28zM33.375 18.17l2.286 5.726h-4.496l2.21-5.726zm0-.559a.555.555 0 00-.526.357l-2.21 5.726a.583.583 0 00.063.527.564.564 0 00.463.249h4.496a.545.545 0 00.464-.248.583.583 0 00.062-.528L33.9 17.968a.57.57 0 00-.525-.357z" fill="#178785"/><path d="M35.661 24.423c-.062.155-.51 1.242-1.653 1.567-.093.032-.34.094-.664.094-.232 0-.495-.032-.788-.14-1.02-.388-1.345-1.381-1.391-1.52h4.496zm0-.558h-4.496a.593.593 0 00-.464.232.55.55 0 00-.077.512c.108.326.541 1.428 1.73 1.878.31.124.65.186.99.186.401 0 .71-.093.819-.124 1.297-.372 1.87-1.505 2.024-1.877a.625.625 0 00.046-.233.572.572 0 00-.572-.574zm9.657.558c-.061.155-.51 1.242-1.653 1.567-.093.032-.34.094-.664.094-.232 0-.495-.032-.788-.14-1.02-.388-1.345-1.381-1.391-1.52h4.496zm0-.558h-4.496a.592.592 0 00-.464.232.55.55 0 00-.077.512c.108.326.541 1.428 1.73 1.878.31.124.65.186.99.186.401 0 .71-.093.819-.124 1.297-.372 1.87-1.505 2.024-1.877a.625.625 0 00.046-.233.571.571 0 00-.572-.574zm-9.471 6.687a.272.272 0 01-.232-.124.314.314 0 01-.03-.264c.092-.232.586-1.38 1.822-1.753a2.42 2.42 0 011.623.047c1.112.403 1.514 1.474 1.576 1.69a.273.273 0 01-.031.25.315.315 0 01-.232.123l-4.496.031zm2.317-1.675c-.185 0-.386.03-.602.093-.65.186-1.05.667-1.267 1.024l3.6-.031c-.185-.326-.51-.76-1.082-.962-.139-.078-.37-.125-.649-.125z" fill="#178785"/><path d="M43.032 18.17l2.286 5.726h-4.496l2.21-5.726zm0-.559a.554.554 0 00-.526.357l-2.21 5.726a.583.583 0 00.063.527.564.564 0 00.463.249h4.496a.545.545 0 00.464-.248.583.583 0 00.062-.528l-2.287-5.726a.554.554 0 00-.526-.357z" fill="#178785"/></g><defs><clipPath id="clip0_1628:368"><path fill="#fff" d="M0 0h75v47H0z"/></clipPath></defs></svg>